<?xml version="1.0" encoding="UTF-8"?>
<svg version="1.1" xmlns="http://www.w3.org/2000/svg" width="1920" height="1080">
<path d="M0 0 C241.23 0 482.46 0 731 0 C731 31.35 731 62.7 731 95 C489.77 95 248.54 95 0 95 C0 63.65 0 32.3 0 0 Z " fill="#000000" transform="translate(595,806)"/>
<path d="M0 0 C0.33 0 0.66 0 1 0 C2.52369996 24.77354329 3.80310161 49.55501393 4.99157715 74.34667969 C5.21832871 79.06842303 5.44716004 83.79006563 5.67578125 88.51171875 C6.11914557 97.67438538 6.5603316 106.83715533 7 116 C7.94327148 116.13792969 8.88654297 116.27585937 9.85839844 116.41796875 C14.87061468 117.34656088 17.81730264 120.12131416 21 124 C23.16922539 128.47452765 23.47358293 132.50774221 22 137.25 C20.11447211 141.41145142 17.82714181 143.52361412 14 146 C10.625 146.8125 10.625 146.8125 8 147 C8.15339844 148.093125 8.30679688 149.18625 8.46484375 150.3125 C9.11694868 155.52933947 9.34164034 160.75005734 9.5625 166 C9.60568359 166.96550781 9.64886719 167.93101562 9.69335938 168.92578125 C9.79841646 171.28372919 9.8996077 173.64184884 10 176 C15.28 176.33 20.56 176.66 26 177 C25.31433565 180.42832177 24.7042269 182.91994728 23.48046875 186.05859375 C21.56548046 191.67317643 21.44252893 197.17404717 21.3125 203.0625 C21.27833984 204.11888672 21.24417969 205.17527344 21.20898438 206.26367188 C21.12731485 208.84209556 21.06196371 211.42102751 21 214 C24.3 214 27.6 214 31 214 C31 222.91 31 231.82 31 241 C34.58875 241.7425 34.58875 241.7425 38.25 242.5 C57.8518638 246.92006594 76.13665852 255.74413527 92 268 C92.7734375 268.56847656 93.546875 269.13695312 94.34375 269.72265625 C125.16701612 293.09696639 144.08383439 327.03637222 150 365 C152.5873093 390.87309301 151 416.99786334 151 443 C51.67 443 -47.66 443 -150 443 C-150 329.96487985 -150 329.96487985 -116 291 C-114.75283203 289.55367188 -114.75283203 289.55367188 -113.48046875 288.078125 C-91.82178926 263.43258352 -62.19343788 246.88482198 -30 241 C-30 232.09 -30 223.18 -30 214 C-26.7 214 -23.4 214 -20 214 C-19.83333893 197.53749312 -19.83333893 197.53749312 -24.16015625 181.890625 C-25 180 -25 180 -25 177 C-19.72 177 -14.44 177 -9 177 C-8.93941406 175.42089844 -8.87882813 173.84179688 -8.81640625 172.21484375 C-8.73195738 170.1223883 -8.64731157 168.02994078 -8.5625 165.9375 C-8.52318359 164.89916016 -8.48386719 163.86082031 -8.44335938 162.79101562 C-8.22333656 157.45969359 -7.8883816 152.26310107 -7 147 C-7.86625 146.938125 -8.7325 146.87625 -9.625 146.8125 C-14.47851505 145.64406119 -17.51826781 143.38636869 -20.11328125 139.20703125 C-22.14429123 134.7244938 -22.38058547 130.92141501 -21.05859375 126.18359375 C-19.08265102 122.10775616 -15.88726173 119.25193094 -12 117 C-10.00633846 116.63064275 -8.00625242 116.29336387 -6 116 C-5.93958023 114.69423004 -5.87916046 113.38846008 -5.81690979 112.04312134 C-5.246074 99.71397397 -4.67242693 87.38496016 -4.09605503 75.05607033 C-3.79985463 68.71827135 -3.50463131 62.38043006 -3.21166992 56.04248047 C-2.92870408 49.92156516 -2.64313382 43.80077632 -2.35578728 37.68006516 C-2.24682546 35.34944314 -2.13878876 33.01877767 -2.03170967 30.68806839 C-1.88112118 27.41383196 -1.72718983 24.13976801 -1.57250977 20.86572266 C-1.52935135 19.91049713 -1.48619293 18.95527161 -1.44172668 17.97109985 C-1.15316224 11.95579542 -0.6585261 5.98607375 0 0 Z " fill="#000000" transform="translate(960,181)"/>
<path d="M0 0 C0.86698565 -0.00350607 1.7339713 -0.00701215 2.62722924 -0.01062447 C5.54050903 -0.01994904 8.45358939 -0.01501239 11.36687756 -0.01015663 C13.4734163 -0.01389235 15.57995366 -0.01849356 17.68648881 -0.02388728 C23.48177725 -0.03614228 29.27700807 -0.03585386 35.07230651 -0.03349853 C41.31988441 -0.03309099 47.56744368 -0.0441234 53.81501293 -0.05361366 C66.05750046 -0.07023816 78.2999617 -0.07574975 90.54245821 -0.07683842 C100.4917078 -0.07775738 110.44095115 -0.08187338 120.39019871 -0.08823967 C123.25370396 -0.09003475 126.11720923 -0.09181437 128.9807145 -0.09358943 C129.69258275 -0.09403152 130.404451 -0.09447362 131.13789102 -0.09492911 C151.16233843 -0.10723807 171.18678368 -0.11513018 191.21123505 -0.11424255 C192.34376284 -0.11419582 192.34376284 -0.11419582 193.49916999 -0.11414814 C197.32595005 -0.11398192 201.15273011 -0.11378384 204.97951017 -0.11357872 C206.1195362 -0.11351889 206.1195362 -0.11351889 207.28259306 -0.11345784 C208.81953338 -0.11337697 210.35647371 -0.11329337 211.89341403 -0.11320706 C235.80705277 -0.11198148 259.7206348 -0.12699576 283.63425732 -0.15435219 C310.49876505 -0.18507165 337.36323552 -0.20228478 364.22776192 -0.20042574 C367.09221025 -0.20027648 369.95665858 -0.20017907 372.82110691 -0.20011711 C373.87906304 -0.20008215 373.87906304 -0.20008215 374.95839202 -0.20004648 C386.30956864 -0.19998493 397.66069603 -0.21275773 409.01185801 -0.22998164 C420.41950052 -0.24693329 431.82705137 -0.24857241 443.23470656 -0.235763 C449.41501653 -0.22922074 455.59514804 -0.22916169 461.77544117 -0.2464695 C467.43252513 -0.26214931 473.08928837 -0.25938851 478.74636426 -0.24190123 C480.79343924 -0.23882013 482.84053785 -0.24250529 484.88758496 -0.25362138 C487.67052133 -0.26773331 490.4523313 -0.25716329 493.23522949 -0.24050903 C494.0296918 -0.25044539 494.82415412 -0.26038175 495.64269105 -0.27061921 C502.17177291 -0.18803161 508.2656903 1.50797929 513.19623526 5.96601782 C517.92051972 11.05236737 519.78935659 16.15993183 519.54856396 23.18305016 C518.67335775 30.67876787 515.13839844 35.60199637 509.30637646 40.25726891 C503.25902857 43.50218729 496.44295045 43.40374466 489.72486782 43.38869667 C488.87000038 43.3907493 488.01513294 43.39280194 487.13436043 43.39491677 C484.262343 43.40058295 481.39037359 43.39912999 478.51835155 43.3977108 C476.44140021 43.40029465 474.36444935 43.40330786 472.28749919 43.4067142 C466.57396574 43.41478502 460.86044485 43.41657382 455.14690638 43.41731167 C448.98725039 43.41916205 442.82760094 43.42670926 436.66794872 43.43344688 C422.49456243 43.44773909 408.32118028 43.45355655 394.14778852 43.45813883 C387.14304169 43.46047548 380.13829569 43.46407819 373.13354951 43.46783421 C349.15283065 43.48066822 325.17211225 43.49138806 301.19139004 43.49483681 C299.68639032 43.49505844 298.18139059 43.49528022 296.67639087 43.49550216 C295.16777411 43.4957228 293.65915735 43.49594328 292.15054059 43.49616361 C289.12403536 43.49660616 286.09753013 43.49705327 283.07102489 43.49750328 C282.32062909 43.49761267 281.57023328 43.49772206 280.7970982 43.49783477 C256.46216861 43.50146589 232.1272688 43.5173888 207.79235061 43.54069364 C182.0601817 43.56529153 156.32802981 43.5790096 130.5958488 43.58020473 C127.77098226 43.58037618 124.94611573 43.58059161 122.1212492 43.58083916 C121.42569459 43.58089493 120.73013998 43.58095069 120.01350796 43.58100815 C108.82246778 43.58215856 97.63145819 43.59317953 86.44042834 43.60772621 C75.19185484 43.62209487 63.94331997 43.62507365 52.69473627 43.61728624 C46.60141547 43.61337536 40.50819753 43.61433085 34.41488934 43.62834358 C28.83613694 43.64105578 23.257565 43.63990845 17.67881295 43.62775287 C15.66132937 43.62579125 13.64383313 43.6288957 11.62636736 43.63759723 C-12.05953816 43.73328381 -12.05953816 43.73328381 -19.63112354 37.06976891 C-23.73169362 32.47596988 -25.34819754 27.92198377 -26.13112354 21.88226891 C-25.20882644 14.24037865 -22.68443344 8.31612815 -16.67018604 3.41351891 C-11.24366582 0.23911182 -6.09890531 -0.03127989 0 0 Z " fill="#000000" transform="translate(713.6936235427856,757.7427310943604)"/>
<path d="M0 0 C0.77662748 -0.00205263 1.55325495 -0.00410527 2.35341659 -0.0062201 C4.9773091 -0.0119117 7.60114948 -0.0104302 10.22504711 -0.00901413 C12.11664411 -0.01159652 14.00824055 -0.01460933 15.89983624 -0.01801753 C21.11479962 -0.02610548 26.32974924 -0.0278781 31.54471815 -0.028615 C37.16242333 -0.03046242 42.78012133 -0.03800815 48.39782238 -0.04475021 C60.68897695 -0.0583465 72.98012827 -0.06436019 85.27128911 -0.06876087 C92.94145512 -0.07152094 100.61161986 -0.07575784 108.28178501 -0.08026505 C129.50561269 -0.09245909 150.72943903 -0.10279374 171.95326996 -0.10614014 C173.32601625 -0.10636177 174.69876254 -0.10658355 176.07150884 -0.10680549 C177.44759376 -0.10702613 178.82367868 -0.10724661 180.1997636 -0.10746694 C182.96048534 -0.10790949 185.72120708 -0.10835661 188.48192883 -0.10880661 C189.16642841 -0.108916 189.85092799 -0.10902539 190.55616999 -0.1091381 C212.75652774 -0.11276961 234.95685285 -0.12869307 257.1571981 -0.15199697 C280.62166774 -0.17658287 304.08611209 -0.19030566 327.55059689 -0.19150805 C340.3442928 -0.19242597 353.13794597 -0.19820748 365.93163013 -0.21632767 C376.8240054 -0.23170028 387.71632473 -0.23686592 398.60870878 -0.22858956 C404.16887171 -0.22467306 409.7289219 -0.22566133 415.28907108 -0.23964691 C420.37614412 -0.25232587 425.463019 -0.2512414 430.55009153 -0.2390562 C432.39330152 -0.23708875 434.23652526 -0.24022562 436.07971589 -0.24890056 C438.58037418 -0.25992746 441.08032502 -0.25255176 443.58096313 -0.24050903 C444.66062553 -0.25190182 444.66062553 -0.25190182 445.7620993 -0.26352477 C451.40316533 -0.20466164 455.42322765 1.21813742 459.56127453 5.06892776 C460.13232922 5.74955276 460.7033839 6.43017776 461.29174328 7.13142776 C461.87568859 7.81205276 462.4596339 8.49267776 463.06127453 9.19392776 C466.63662245 14.07925164 466.22269093 20.36970846 465.47924328 26.13142776 C462.80328026 32.61108107 458.79075197 36.32631279 452.47924328 39.13142776 C448.69236356 40.40641191 444.87211974 40.27384218 440.92190552 40.26564884 C440.15346486 40.26800107 439.38502419 40.2703533 438.59329745 40.27277681 C436.00324809 40.27946483 433.41324892 40.27900865 430.82319164 40.27859879 C428.95349351 40.28189752 427.08379609 40.28562311 425.21409959 40.28974026 C420.06419693 40.29976709 414.91430592 40.30347815 409.76439488 40.30612957 C404.21481557 40.31003055 398.66524552 40.31960898 393.11567211 40.32834244 C379.7082085 40.34811179 366.30074412 40.35817326 352.89326957 40.36707023 C346.58202918 40.37145201 340.27078963 40.37681907 333.9595499 40.3820591 C312.98446142 40.39907119 292.0093731 40.41359106 271.03427887 40.42080784 C269.67782335 40.4212826 268.32136783 40.42175848 266.96491231 40.4222355 C266.2922335 40.42247188 265.6195547 40.42270825 264.92649169 40.42295179 C261.51837568 40.42415299 258.11025967 40.42536844 254.70214367 40.42659378 C253.68761836 40.42695401 253.68761836 40.42695401 252.65259759 40.42732151 C230.72239042 40.43521491 208.79223733 40.4586479 186.86205378 40.49114972 C163.67614221 40.52544988 140.49026098 40.54515798 117.30432004 40.54845208 C104.66534622 40.55061888 92.0264519 40.55939248 79.38750172 40.58491325 C68.62551389 40.60659367 57.86362486 40.61468372 47.10161767 40.60494647 C41.60990005 40.60039421 36.11838639 40.60234199 30.62669659 40.62170792 C25.5986695 40.63928582 20.57099599 40.63838548 15.54296543 40.62281062 C13.72462845 40.6204264 11.90626732 40.62480018 10.08796731 40.63663927 C-9.61995386 40.75700438 -9.61995386 40.75700438 -16.67700672 34.09627151 C-17.34216297 33.09273636 -17.34216297 33.09273636 -18.02075672 32.06892776 C-18.48481922 31.3973262 -18.94888172 30.72572464 -19.42700672 30.03377151 C-22.30168971 25.03387647 -21.9391638 19.72359934 -21.52075672 14.13142776 C-19.72538057 8.29645528 -15.34065811 4.65889592 -10.52075672 1.13142776 C-6.9502123 -0.05875371 -3.71535862 -0.00904545 0 0 Z " fill="#000000" transform="translate(738.5207567214966,712.8685722351074)"/>
<path d="M0 0 C1.03844036 -0.00654048 1.03844036 -0.00654048 2.09785932 -0.0132131 C4.4169894 -0.02415902 6.73552365 -0.0137508 9.05464935 -0.00342751 C10.73434837 -0.00688434 12.41404512 -0.01164907 14.09373713 -0.01760924 C18.70909957 -0.0301454 23.32427617 -0.02393695 27.93963933 -0.01465058 C32.91721313 -0.00787115 37.89475466 -0.01833583 42.87232208 -0.02659035 C52.62325035 -0.03994169 62.37410941 -0.0370437 72.12504041 -0.02835242 C80.04867012 -0.0215818 87.9722804 -0.02065647 95.89591217 -0.02392387 C97.02293892 -0.02438357 98.14996567 -0.02484327 99.31114474 -0.0253169 C101.60056015 -0.02627606 103.88997556 -0.0272487 106.17939097 -0.02823468 C127.65553683 -0.03679267 149.13164429 -0.026948 170.60778385 -0.01083358 C189.04187381 0.00256997 207.4759071 0.00024199 225.90999603 -0.01358986 C247.30843397 -0.02963843 268.70683824 -0.03596866 290.10528135 -0.02675307 C292.38635222 -0.0257974 294.66742308 -0.02485429 296.94849396 -0.02392387 C298.63206198 -0.02322963 298.63206198 -0.02322963 300.34964147 -0.02252137 C308.26526042 -0.01992931 316.18085805 -0.02430713 324.09647369 -0.03136253 C333.74080269 -0.03976969 343.38505842 -0.0375139 353.02937901 -0.0215203 C357.95160272 -0.01362704 362.8737042 -0.01056397 367.79592705 -0.02046776 C372.30001669 -0.02939329 376.80387056 -0.0245172 381.30793875 -0.0085351 C382.93907776 -0.00517821 384.5702366 -0.00690171 386.20136291 -0.01416247 C388.41599511 -0.02326599 390.62981643 -0.01394831 392.84440613 0 C394.07524477 0.00048706 395.3060834 0.00097411 396.57422018 0.00147593 C402.85410302 0.70683622 406.87095451 3.66931565 410.92220306 8.37752342 C414.34681636 13.4553983 414.90550701 18.42256119 413.92220306 24.37752342 C411.80059785 29.47636065 408.60260729 33.40946221 403.92220306 36.37752342 C399.45118055 38.16074008 395.71136598 38.62858281 390.91246223 38.63199902 C390.22752135 38.63520549 389.54258046 38.63841197 388.83688378 38.64171562 C386.54286037 38.65001375 384.24909816 38.64409206 381.9550705 38.63821983 C380.29329741 38.6412406 378.63152572 38.64512971 376.96975648 38.6498124 C372.40389931 38.66011075 367.8381205 38.6579059 363.27225685 38.65363181 C358.34781925 38.65116792 353.42340069 38.66017456 348.49897003 38.6676693 C338.85166087 38.68042774 329.20437953 38.68220856 319.55706336 38.67986903 C311.71640542 38.67808698 303.87575595 38.6798331 296.03509903 38.68409348 C294.91975117 38.68468866 293.80440332 38.68528385 292.65525704 38.68589708 C290.38952109 38.68710881 288.12378514 38.68832295 285.8580492 38.68953945 C264.603131 38.70041943 243.34822866 38.69825035 222.09330957 38.69215461 C202.6445307 38.68698516 183.19580191 38.69824084 163.74703296 38.71725283 C143.78174054 38.73662027 123.81647182 38.74488914 103.85116994 38.74112958 C92.64029949 38.73921586 81.42947166 38.74172172 70.21860886 38.75584412 C60.6746196 38.76774495 51.13069922 38.76917739 41.58670904 38.75705395 C36.7168907 38.75115613 31.8471984 38.75009078 26.97738838 38.76205635 C22.51884266 38.77288413 18.0605287 38.76984884 13.60199396 38.75579467 C11.98965953 38.75313917 10.37730711 38.75554098 8.76499029 38.76353053 C-9.00158014 38.84545401 -9.00158014 38.84545401 -15.35514069 33.44002342 C-15.90299225 32.75939842 -16.45084381 32.07877342 -17.01529694 31.37752342 C-17.58119537 30.69689842 -18.14709381 30.01627342 -18.73014069 29.31502342 C-21.878848 24.78818625 -21.53262912 19.67011612 -21.07779694 14.37752342 C-19.02706376 8.6570572 -15.56239323 4.85512914 -10.35219049 1.75658739 C-6.63824579 0.19239933 -4.01987881 0.00159071 0 0 Z " fill="#000000" transform="translate(764.0777969360352,669.6224765777588)"/>
<path d="M0 0 C1.8782929 -0.00668677 1.8782929 -0.00668677 3.79453111 -0.01350862 C5.19184129 -0.01341932 6.58915148 -0.01322946 7.98646164 -0.01294994 C9.46486627 -0.01624853 10.94327 -0.01997408 12.42167258 -0.02409142 C16.4945466 -0.03412006 20.56740588 -0.0378296 24.6402905 -0.04048073 C29.02896709 -0.04438119 33.41763198 -0.05395965 37.80630112 -0.0626936 C48.40954848 -0.08246458 59.0127968 -0.09252469 69.61605799 -0.10142139 C74.60709802 -0.10580295 79.59813699 -0.11117007 84.58917618 -0.11641026 C101.17639699 -0.13342261 117.76361714 -0.1479176 134.35084534 -0.155159 C138.65620296 -0.15706894 142.96156058 -0.15898927 147.26691818 -0.16094494 C148.33701621 -0.16142868 149.40711423 -0.16191242 150.50963947 -0.16241082 C167.85121001 -0.17071419 185.19271164 -0.19605625 202.53425208 -0.22852562 C220.33094754 -0.26157607 238.12760796 -0.2796059 255.92433429 -0.28280324 C265.91960723 -0.28497012 275.91477966 -0.29374494 285.91002274 -0.31926441 C294.42096819 -0.34094384 302.93178872 -0.34903541 311.44275865 -0.33929763 C315.78591585 -0.33474501 320.12881515 -0.33669486 324.47193718 -0.35605907 C328.44827336 -0.37363501 332.42416244 -0.37273867 336.40050301 -0.35716178 C337.83862261 -0.35477721 339.27677271 -0.35915321 340.71484557 -0.37099043 C354.07890651 -0.4741763 354.07890651 -0.4741763 360.04377365 4.13422108 C363.80769599 7.99987105 365.8752505 11.77624123 366.1492424 17.23578358 C365.89854255 22.63975825 364.20553769 26.11041631 361.00471115 30.40765858 C354.22348451 36.37838004 346.18551359 35.55853907 337.65130234 35.515172 C336.17285506 35.51863056 334.69441037 35.52339646 333.21597105 35.52935374 C329.16153633 35.54186608 325.10731371 35.53569234 321.05287826 35.52639508 C316.67723464 35.51960595 312.30162744 35.53008511 307.92599106 35.53833485 C299.35764885 35.55167548 290.78938548 35.54879306 282.22104018 35.54009692 C275.25805542 35.53332253 268.29509275 35.5324026 261.33210564 35.53566837 C260.34120708 35.53612807 259.35030852 35.53658777 258.32938274 35.5370614 C256.31642186 35.53802057 254.30346098 35.53899321 252.29050011 35.53997917 C233.41484532 35.54853392 214.53923424 35.53869737 195.66358662 35.52257808 C179.46436602 35.50917275 163.26520989 35.5115046 147.06599045 35.52533436 C128.2564529 35.54138509 109.44695366 35.54771212 90.63741022 35.53849757 C88.63214879 35.53754191 86.62688735 35.5365988 84.6216259 35.53566837 C83.63498361 35.53520555 82.64834132 35.53474272 81.63180078 35.53426587 C74.67597036 35.53167462 67.72016421 35.53604985 60.76433754 35.54310703 C52.28932881 35.55151651 43.81440345 35.54925344 35.33940428 35.5332648 C31.01462158 35.52537496 26.68997793 35.52230264 22.36519623 35.53221226 C18.40700949 35.54114479 14.44909086 35.53625022 10.49092848 35.5202796 C9.05833789 35.5169257 7.62572469 35.51863956 6.19314861 35.52590697 C4.24662341 35.53502493 2.30003483 35.52388142 0.35352612 35.5117445 C-0.72792008 35.51125744 -1.80936628 35.51077039 -2.92358357 35.51026857 C-8.00391248 34.88030814 -11.16263396 32.94584965 -14.70622635 29.32172108 C-18.52009296 23.91874337 -19.42826916 19.76492424 -18.49528885 13.31000233 C-17.12489483 7.7787743 -13.51041113 4.28711823 -8.95622635 1.13422108 C-5.72605615 0.05749768 -3.39790025 0.00559806 0 0 Z " fill="#000000" transform="translate(786.956226348877,629.8657789230347)"/>
</svg>
